# xmcd
#
# Track frame offsets: 
#        150
#        6407
#        17952
#        28562
#        37425
#        47487
#        60752
#        70595
#        80652
#        94047
#        110300
#        119990
#
# Disc length: 1863 seconds
#
# Revision: 0
# Processed by: cddbd v1.5.2PL0 Copyright (c) Steve Scherf et al.
# Submitted via: ExactAudioCopy v0.99pb1
#
DISCID=9d07450c
DTITLE=Leon Pinson - The George Mitchell Collection
DYEAR=2006
DGENRE=Gospel
TTITLE0=What Can God Do
TTITLE1=Only Believe
TTITLE2=Blessed Question
TTITLE3=I Have A Savior I Can Depend On
TTITLE4=Motherless Child
TTITLE5=Hush - Somebody Is Calling Me
TTITLE6=Search Me Lord
TTITLE7=Pray For Me
TTITLE8=What A Friend We Have In Jesus
TTITLE9=There's No Friend Like The Lonely Jesus
TTITLE10=Want To Die Easy When I Die
TTITLE11=He'll Understand And Say Well Done
EXTD=
EXTT0=
EXTT1=
EXTT2=
EXTT3=
EXTT4=
EXTT5=
EXTT6=
EXTT7=
EXTT8=
EXTT9=
EXTT10=
EXTT11=
PLAYORDER=
